<?xml version="1.0" standalone="no"?>
<!DOCTYPE svg PUBLIC "-//W3C//DTD SVG 20010904//EN"
 "http://www.w3.org/TR/2001/REC-SVG-20010904/DTD/svg10.dtd">
<svg version="1.0" xmlns="http://www.w3.org/2000/svg"
 width="1280.000000pt" height="1280.000000pt" viewBox="0 0 1280.000000 1280.000000"
 preserveAspectRatio="xMidYMid meet">
<metadata>
Created by potrace 1.15, written by Peter Selinger 2001-2017
</metadata>
<g transform="translate(0.000000,1280.000000) scale(0.100000,-0.100000)"
fill="#ff5722" stroke="none">
<path d="M1520 11971 c-126 -41 -210 -154 -210 -282 0 -94 23 -152 87 -218
l53 -55 0 -5298 0 -5298 160 0 160 0 0 5301 0 5301 43 42 c65 63 91 125 92
216 0 123 -57 215 -168 272 -45 23 -171 34 -217 19z"/>
<path d="M1820 8715 l0 -2545 4833 0 4834 0 5 333 c5 279 4 3920 -1 4555 l-1
202 -4835 0 -4835 0 0 -2545z"/>
</g>
</svg>
